<svg clip-rule="evenodd" fill-rule="evenodd" stroke-linejoin="round" stroke-miterlimit="2" viewBox="0 0 560 400" xmlns="http://www.w3.org/2000/svg"><path d="m416.473 0-217.933 385.66h-198.54l170.17-301.138c26.379-46.68 92.207-84.522 147.033-84.522zm486.875 96.415c0-53.249 44.444-96.415 99.272-96.415 54.82 0 99.27 43.166 99.27 96.415 0 53.248-44.45 96.415-99.27 96.415-54.828 0-99.272-43.167-99.272-96.415zm-449.649-96.415h198.54l-217.933 385.66h-198.54zm234.492 0h198.542l-170.173 301.138c-26.378 46.68-92.207 84.522-147.032 84.522h-99.27z" fill="#ffffff" fill-rule="nonzero" transform="matrix(.326712 0 0 .326712 100 137)"/></svg>